# xmcd
#
# Track frame offsets:
#	150
#	17328
#	34943
#	47870
#	59125
#	70433
#	89615
#	108908
#	122178
#	144425
#	165005
#	178330
#	201180
#
# Disc length: 2889 seconds
#
# Revision: 1
# Processed by: cddbd v1.4PL0 Copyright (c) Steve Scherf et al.
# Submitted via: audiograbber 1.82.02
#
DISCID=bb0b470d
DTITLE=Various Artist - Lazy Loud and Liquor'd Up - The San Francisco Alternative Countr
DTITLE=y Compilation
DYEAR=1900
DGENRE=Country
TTITLE0=Buck Naked and the Bare Bopttom Boys - Uncontrollable Flesh
TTITLE1=Dee Lannon - Hello Mr. Bottle
TTITLE2=Jerry Shelfer - Loving Cup
TTITLE3=The Wannabe Texans - Departure
TTITLE4=Flophouse - Bad Blood
TTITLE5=Colorfinger - Eleanor Young
TTITLE6=The Zacharies - I Don't Wanna Get Married
TTITLE7=Diablo - Dime A Dozen
TTITLE8=Sinful Doins - John Wesley Man
TTITLE9=Rudy Chalard - Motel Man
TTITLE10=Silver Threads - Refinery Town
TTITLE11=The Easy Holes - In The Pines - On The Rock (Where Moses Stood)
TTITLE12=The Legendary Stardust Cowboy - My Underwear Froze To The Clothesline
EXTD=
EXTT0=
EXTT1=
EXTT2=
EXTT3=
EXTT4=
EXTT5=
EXTT6=
EXTT7=
EXTT8=
EXTT9=
EXTT10=
EXTT11=
EXTT12=
PLAYORDER=
